# Blender v2.76 (sub 0) OBJ File: ''
# www.blender.org
v -4.0 4.0 8.0
v -4.0 4.0 -0.0
v -4.0 -4.0 0.0
v 4.0 -4.0 8.0
v 4.0 -4.0 0.0
v 4.0 4.0 0.0
v 4.0 4.0 8.0
v -4.0 -4.0 8.0
vt 1.000000 0.000000
vt 1.000000 1.000000
vt 0.000000 1.000000
vt 0.000000 0.000000
vn -1.0 -0.0 -0.0
vn 1.0 0.0 0.0
vn -0.0 0.0 1.0
vn -0.0 1.0 -0.0
vn 0.0 -0.0 -1.0
vn 0.0 -1.0 0.0
f 1/1/1 2/2/1 3/3/1
f 4/4/2 5/1/2 6/2/2
f 4/1/3 7/2/3 1/3/3
f 7/1/4 6/2/4 2/3/4
f 6/1/5 5/2/5 3/3/5
f 8/1/6 3/2/6 5/3/6
f 8/4/1 1/1/1 3/3/1
f 7/3/2 4/4/2 6/2/2
f 8/4/3 4/1/3 1/3/3
f 1/4/4 7/1/4 2/3/4
f 2/4/5 6/1/5 3/3/5
f 4/4/6 8/1/6 5/3/6
