# Blender v2.76 (sub 0) OBJ File: ''
# www.blender.org
v -4.001587 7.998435 3.986112
v -3.998430 -0.001561 3.978956
v 4.001568 0.001600 3.975064
v 3.994512 8.008749 -4.017776
v 3.997673 0.008754 -4.024932
v -4.002326 0.005593 -4.021039
v -4.005486 8.005585 -4.013883
v 3.998411 8.001595 3.982220
vt 1.000000 0.000000
vt 1.000000 1.000000
vt 0.000000 1.000000
vt 0.000000 0.000000
vn 0.000500 -0.000900 1.000000
vn -0.000500 0.000900 -1.000000
vn -0.000400 1.000000 0.000900
vn -1.000000 -0.000400 0.000500
vn 0.000400 -1.000000 -0.000900
vn 1.000000 0.000400 -0.000500
s 1
f 1/1/1 2/2/1 3/3/1
f 4/4/2 5/1/2 6/2/2
f 4/1/3 7/2/3 1/3/3
f 7/1/4 6/2/4 2/3/4
f 6/1/5 5/2/5 3/3/5
f 8/1/6 3/2/6 5/3/6
f 8/4/1 1/1/1 3/3/1
f 7/3/2 4/4/2 6/2/2
f 8/4/3 4/1/3 1/3/3
f 1/4/4 7/1/4 2/3/4
f 2/4/5 6/1/5 3/3/5
f 4/4/6 8/1/6 5/3/6
